<?xml version="1.0" standalone="no"?>
<!DOCTYPE svg PUBLIC "-//W3C//DTD SVG 20010904//EN"
 "http://www.w3.org/TR/2001/REC-SVG-20010904/DTD/svg10.dtd">
<svg version="1.0" xmlns="http://www.w3.org/2000/svg"
 width="24.000000pt" height="24.000000pt" viewBox="0 0 24.000000 24.000000"
 preserveAspectRatio="xMidYMid meet">

<g transform="translate(0.000000,24.000000) scale(0.100000,-0.100000)"
fill="#000000" stroke="none">
<path d="M71 206 c-28 -16 -50 -52 -51 -84 0 -31 25 -78 46 -86 25 -10 29 1 7
21 -10 10 -13 14 -6 10 6 -5 17 -5 24 -1 8 5 5 12 -10 24 -19 13 -21 22 -16
51 6 33 7 34 55 34 48 0 49 -1 55 -35 5 -26 3 -37 -12 -48 -15 -11 -20 -47 -8
-60 8 -8 38 14 50 39 47 91 -45 184 -134 135z"/>
</g>
</svg>
